<?xml version="1.0" encoding="UTF-8"?><svg id="Layer_1" xmlns="http://www.w3.org/2000/svg" viewBox="0 0 1080 1080"><defs><style>.cls-1{fill:#fef4f0;}</style></defs><path class="cls-1" d="m318.96,863.77l-20.32-77.71-.12-.46c0-.69.42-1.03,1.26-1.03h14.24c.76,0,1.26.38,1.49,1.15l10.91,46.72c.07.31.19.46.35.46s.27-.15.34-.46l10.56-46.61c.23-.84.73-1.26,1.49-1.26h13.89c.84,0,1.38.38,1.61,1.15l11.48,46.72c.07.23.19.36.34.4.15.04.27-.1.35-.4l10.56-46.61c.23-.84.73-1.26,1.49-1.26h13.55c1.07,0,1.49.5,1.26,1.49l-18.82,77.71c-.23.77-.77,1.15-1.61,1.15h-13.66c-.77,0-1.26-.38-1.49-1.15l-11.71-49.71c-.08-.3-.19-.46-.35-.46s-.27.15-.34.46l-10.91,49.59c-.16.84-.65,1.26-1.49,1.26h-12.74c-.84,0-1.38-.38-1.61-1.15Z"/><path class="cls-1" d="m478.07,863.77l-3.44-11.25c-.15-.3-.34-.46-.57-.46h-28.24c-.23,0-.42.15-.57.46l-3.33,11.25c-.23.77-.73,1.15-1.49,1.15h-14.58c-.46,0-.8-.13-1.03-.4-.23-.27-.27-.67-.11-1.21l24.79-77.6c.23-.77.73-1.15,1.49-1.15h18.02c.77,0,1.26.38,1.49,1.15l24.8,77.6c.07.16.11.34.11.57,0,.69-.42,1.03-1.26,1.03h-14.58c-.77,0-1.26-.38-1.49-1.15Zm-28.24-24.22h20.2c.46,0,.61-.23.46-.69l-10.33-34.09c-.08-.31-.19-.44-.34-.4-.16.04-.27.17-.34.4l-10.1,34.09c-.08.46.07.69.46.69Z"/><path class="cls-1" d="m547.71,864.4c-.27-.27-.4-.59-.4-.98v-29.04c0-.31-.04-.53-.12-.69l-23.65-47.52c-.16-.3-.23-.53-.23-.69,0-.61.42-.92,1.26-.92h14.46c.76,0,1.3.34,1.61,1.03l14.35,30.53c.23.46.46.46.69,0l14.35-30.53c.3-.69.84-1.03,1.61-1.03h14.69c.53,0,.9.13,1.09.4.19.27.17.67-.06,1.2l-23.88,47.52c-.08.15-.12.38-.12.69v29.04c0,.38-.13.71-.4.98s-.59.4-.98.4h-13.31c-.38,0-.71-.13-.98-.4Z"/><path class="cls-1" d="m652.34,863.77l-23.65-77.6-.12-.46c0-.77.42-1.15,1.26-1.15h14.46c.84,0,1.38.38,1.61,1.15l15.27,56.02c.07.23.19.34.34.34s.27-.12.34-.34l15.04-56.02c.23-.77.76-1.15,1.61-1.15h14.12c.46,0,.8.15,1.03.46.23.31.27.69.12,1.15l-23.99,77.6c-.23.77-.73,1.15-1.49,1.15h-14.46c-.77,0-1.26-.38-1.49-1.15Z"/><path class="cls-1" d="m791.91,798.05c-.27.27-.59.4-.98.4h-37.65c-.38,0-.57.19-.57.57v17.79c0,.38.19.57.57.57h24.68c.38,0,.71.13.98.4.27.27.4.59.4.98v11.14c0,.38-.14.71-.4.98-.27.27-.59.4-.98.4h-24.68c-.38,0-.57.19-.57.57v18.6c0,.38.19.57.57.57h37.65c.38,0,.71.13.98.4.27.27.4.59.4.98v11.13c0,.38-.14.71-.4.98-.27.27-.59.4-.98.4h-53.03c-.38,0-.71-.13-.98-.4-.27-.27-.4-.59-.4-.98v-77.6c0-.38.13-.71.4-.98.27-.27.59-.4.98-.4h53.03c.38,0,.71.13.98.4.27.27.4.59.4.98v11.13c0,.38-.14.71-.4.98Z"/><path class="cls-1" d="m775.88,361.36c-8.43-19-13.55-31.38-26.09-47.73-2.92-3.8-5.36-6.7-5.36-6.7-9.31-2.97-17.45,4.29-15.52,13.96,33.86,42.14,46.46,90.08,46.46,144.54s-31.92,106.15-106.52,106.36h-.32c-57.61,0-103.86-42.41-107.64-98.76-1.42-21.13,4.11-55.15,26.78-88.35,25.36-38.08,81.68-76.71,156.99-105.69,1.01-.37,1.49-.67,1.5-.93h0c-6.23-.67-12.59-1.1-18.99-1.34-2.66,0-5.44,0-8.27,0-17.79,0-35.79.81-53.8,2.54-29.2,3.08-52.63,7.81-59.68,9.32-27.23,5.99-54.03,14.44-79.73,25.78-94.73,41.79-170.16,122.9-194.35,213.68-.51-1.73-1-3.46-1.47-5.2-10.02-37.08-10.55-76.41-1.14-114.06,25.74-103.06,118.54-172.03,220.27-172.03,18.15,0,36.6,2.2,55,6.79.37.09.73.19,1.09.28,5.85,1.52,33.25,9.28,44.1,15.85,13-1.11,26.33-1.72,38.88-2.03-6.12-4.08-12.42-7.91-18.89-11.45-18.77-10.37-38.9-18.32-59.96-23.58-64.42-16.09-131.25-6.13-188.19,28.04-56.93,34.18-97.15,88.48-113.24,152.9-5.21,20.88-7.64,42.22-7.35,63.49h0c1.83,122.75,92.54,223.92,210.61,242.15.62.1,1.25.19,1.88.28.79.12,1.57.24,2.36.34,7.28.98,16.93,2.34,29.28,2.34,15.77,0,25.94-2.46,24.66-5.82-1.45-3.78-11.53-5.65-31.99-20.58-8.12-6.21-17.99-14.85-27.77-26.18-30.48-35.29-45.8-78.58-45.54-128.68.29-55.47,19.14-103.41,56.03-142.49,26.92-28.52,63.95-52.95,110.54-73.03-7.69,5.84-16.32,12.91-26.43,21.56-36.9,30.43-53.16,64.34-59.88,94.99-3.7,14.6-5.24,29.1-4.34,42.53,4.53,67.58,59.81,118.43,128.66,118.43.13,0,.26,0,.38,0,35.02-.1,65.62-11.88,88.85-33.17,25.31-23.2,38.69-55.8,38.69-94.26,0-36.09-5.94-71.11-20.56-104.07Zm-332.61,169.41c-.36,69.27,27.65,116.02,51.21,143.03,4.09,4.69,8.18,8.95,12.17,12.82-7.28-1.36-14.44-3.05-21.46-5.08-1.42-.41-2.84-.83-4.25-1.28-5.37-1.71-8.16-2.63-11.52-3.92-.04-.01-.07-.03-.11-.04-.78-.3-1.59-.62-2.47-.98-3.58-1.4-7.13-2.87-10.61-4.45-28.76-13.03-54.35-31.92-75.27-55.17-1.49-1.73-3.01-3.52-4.59-5.4-15.28-18.12-23.3-40.87-23.55-63.99-.13-12.27,1.91-24.64,6.23-36.49,17.72-48.6,51.41-93.82,98.35-131.03,43.28-34.31,94.18-61.93,145.83-73.71-105.73,51.04-159.45,126.67-159.96,225.69Z"/></svg>